<svg width="801" height="232" viewBox="0 0 801 232" fill="none" xmlns="http://www.w3.org/2000/svg">
<g clip-path="url(#clip0_416_505)">
<circle cx="115.9" cy="115.9" r="115.9" fill="#99ADFF"/>
<circle cx="115.52" cy="115.52" r="98.5198" fill="white"/>
<path d="M115.52 17C169.93 17 214.04 61.1087 214.04 115.52C214.04 169.931 169.931 214.04 115.52 214.04C61.1087 214.04 17 169.93 17 115.52C17.0001 61.1088 61.1088 17.0001 115.52 17ZM79.0664 104.659C66.8797 104.659 57.0004 114.539 57 126.726C57 138.722 66.5733 148.484 78.4971 148.786L79.0664 148.793C91.0631 148.793 100.825 139.22 101.127 127.296L101.134 126.726C101.133 114.539 91.2534 104.659 79.0664 104.659ZM119.782 84.9395C116.326 84.9396 112.988 85.7968 109.726 87.9404C106.552 90.026 103.635 93.207 100.734 97.5586C99.5093 99.3966 100.006 101.88 101.844 103.105C103.682 104.331 106.165 103.834 107.391 101.996C109.957 98.1468 112.167 95.909 114.119 94.626C115.983 93.4013 117.771 92.9396 119.782 92.9395C122.443 92.9395 123.934 93.5434 124.723 94.2246C125.403 94.8126 126.133 95.9521 126.133 98.5078C126.133 98.4152 126.12 98.8165 125.587 99.9053C125.103 100.893 124.358 102.115 123.373 103.535C121.407 106.371 118.727 109.655 115.939 112.908C113.124 116.195 110.405 119.217 108.165 121.794C107.08 123.042 106.108 124.186 105.378 125.119C105.016 125.582 104.667 126.052 104.381 126.491C104.185 126.793 103.695 127.549 103.484 128.464L103.462 128.562L103.444 128.663C103.15 130.321 103.663 132.082 105.014 133.37C106.225 134.525 107.793 135.011 109.23 135.197C112.082 135.567 116.191 134.987 122.035 133.186C126.514 131.805 129.444 130.9 131.306 130.325C132.994 140.618 141.803 148.515 152.509 148.786L153.078 148.793C165.075 148.793 174.836 139.22 175.139 127.296L175.146 126.726C175.145 114.539 165.265 104.659 153.078 104.659C142.558 104.66 133.758 112.022 131.548 121.875C131.305 121.951 130.888 122.081 130.237 122.282C128.569 122.798 125.38 123.783 119.679 125.54C117.472 126.22 115.705 126.653 114.31 126.92C116.383 124.538 119.263 121.324 122.015 118.112C124.842 114.812 127.74 111.278 129.947 108.094C131.049 106.505 132.041 104.915 132.771 103.424C133.452 102.035 134.133 100.286 134.133 98.5078C134.133 94.3273 132.86 90.6829 129.953 88.1709C127.153 85.7521 123.468 84.9395 119.782 84.9395ZM79.0664 112.659C86.8351 112.659 93.1334 118.957 93.1338 126.726C93.1338 134.495 86.8353 140.793 79.0664 140.793C71.2978 140.793 65 134.494 65 126.726C65.0004 118.957 71.298 112.659 79.0664 112.659ZM153.078 112.659C160.847 112.659 167.145 118.957 167.146 126.726C167.146 134.495 160.847 140.793 153.078 140.793C145.31 140.793 139.012 134.494 139.012 126.726C139.012 118.957 145.31 112.66 153.078 112.659ZM98.5947 74C94.7122 74.0002 91.5645 77.1477 91.5645 81.0303C91.5645 84.9128 94.7122 88.0604 98.5947 88.0605C102.477 88.0605 105.625 84.9129 105.625 81.0303C105.625 77.1476 102.477 74 98.5947 74Z" fill="#0029D6"/>
<path d="M599.457 133.709C603.313 133.709 606.703 134.486 609.627 136.042C612.551 137.534 614.852 139.494 616.531 141.92V134.549H629.687V186.612C629.687 191.402 628.723 195.663 626.795 199.395C624.867 203.189 621.974 206.175 618.118 208.352C614.261 210.591 609.596 211.711 604.122 211.711C596.782 211.711 590.748 210 586.021 206.579C581.356 203.158 578.712 198.493 578.09 192.584H591.059C591.744 194.947 593.205 196.814 595.445 198.182C597.746 199.613 600.514 200.328 603.749 200.328C607.543 200.328 610.622 199.177 612.986 196.876C615.35 194.636 616.531 191.215 616.531 186.612V178.588C614.852 181.014 612.519 183.036 609.534 184.653C606.61 186.27 603.251 187.079 599.457 187.079C595.103 187.079 591.122 185.959 587.514 183.72C583.906 181.481 581.045 178.339 578.93 174.296C576.877 170.191 575.851 165.494 575.851 160.207C575.851 154.982 576.877 150.348 578.93 146.305C581.045 142.262 583.875 139.152 587.421 136.975C591.028 134.797 595.04 133.709 599.457 133.709ZM616.531 160.394C616.531 157.222 615.909 154.516 614.665 152.276C613.421 149.975 611.742 148.233 609.627 147.051C607.512 145.807 605.242 145.185 602.816 145.185C600.39 145.185 598.151 145.776 596.098 146.958C594.045 148.14 592.366 149.882 591.059 152.183C589.815 154.422 589.193 157.097 589.193 160.207C589.193 163.317 589.815 166.054 591.059 168.418C592.366 170.719 594.045 172.492 596.098 173.736C598.213 174.98 600.452 175.602 602.816 175.602C605.242 175.602 607.512 175.011 609.627 173.83C611.742 172.586 613.421 170.844 614.665 168.605C615.909 166.303 616.531 163.566 616.531 160.394Z" fill="black"/>
<path d="M546.168 133.802C552.326 133.802 557.302 135.762 561.097 139.68C564.891 143.537 566.788 148.949 566.788 155.915V186.239H553.726V157.688C553.726 153.583 552.699 150.441 550.646 148.264C548.594 146.025 545.795 144.905 542.249 144.905C538.641 144.905 535.78 146.025 533.665 148.264C531.612 150.441 530.586 153.583 530.586 157.688V186.239H517.524V134.549H530.586V140.987C532.328 138.747 534.536 137.006 537.211 135.762C539.948 134.455 542.933 133.802 546.168 133.802Z" fill="black"/>
<path d="M498.18 128.391C495.878 128.391 493.95 127.675 492.395 126.245C490.902 124.752 490.156 122.917 490.156 120.74C490.156 118.563 490.902 116.759 492.395 115.328C493.95 113.835 495.878 113.089 498.18 113.089C500.481 113.089 502.378 113.835 503.871 115.328C505.426 116.759 506.204 118.563 506.204 120.74C506.204 122.917 505.426 124.752 503.871 126.245C502.378 127.675 500.481 128.391 498.18 128.391ZM504.618 134.549V186.239H491.555V134.549H504.618Z" fill="black"/>
<path d="M460.492 187.079C456.262 187.079 452.468 186.332 449.109 184.839C445.75 183.284 443.076 181.201 441.085 178.588C439.157 175.976 438.099 173.083 437.913 169.911H451.069C451.317 171.901 452.282 173.55 453.961 174.856C455.703 176.162 457.849 176.815 460.399 176.815C462.887 176.815 464.815 176.318 466.184 175.322C467.614 174.327 468.33 173.052 468.33 171.497C468.33 169.818 467.459 168.574 465.717 167.765C464.038 166.894 461.332 165.961 457.6 164.966C453.743 164.033 450.571 163.069 448.083 162.073C445.657 161.078 443.542 159.554 441.738 157.501C439.997 155.449 439.126 152.681 439.126 149.197C439.126 146.336 439.934 143.724 441.552 141.36C443.231 138.996 445.595 137.13 448.643 135.762C451.753 134.393 455.392 133.709 459.559 133.709C465.717 133.709 470.631 135.264 474.301 138.374C477.971 141.422 479.993 145.559 480.366 150.784H467.863C467.677 148.731 466.806 147.114 465.251 145.932C463.758 144.688 461.736 144.066 459.186 144.066C456.822 144.066 454.987 144.501 453.681 145.372C452.437 146.243 451.815 147.456 451.815 149.011C451.815 150.752 452.686 152.09 454.428 153.023C456.169 153.894 458.875 154.796 462.545 155.729C466.277 156.662 469.356 157.626 471.782 158.621C474.208 159.616 476.292 161.171 478.033 163.286C479.837 165.339 480.77 168.076 480.833 171.497C480.833 174.483 479.993 177.157 478.313 179.521C476.696 181.885 474.332 183.751 471.222 185.119C468.174 186.426 464.598 187.079 460.492 187.079Z" fill="black"/>
<path d="M374.118 160.207C374.118 154.982 375.144 150.348 377.197 146.305C379.311 142.262 382.142 139.152 385.687 136.975C389.295 134.797 393.307 133.709 397.723 133.709C401.58 133.709 404.939 134.486 407.8 136.042C410.724 137.597 413.056 139.556 414.798 141.92V134.549H427.954V186.239H414.798V178.681C413.119 181.107 410.786 183.129 407.8 184.746C404.877 186.301 401.487 187.079 397.63 187.079C393.276 187.079 389.295 185.959 385.687 183.72C382.142 181.481 379.311 178.339 377.197 174.296C375.144 170.191 374.118 165.494 374.118 160.207ZM414.798 160.394C414.798 157.222 414.176 154.516 412.932 152.276C411.688 149.975 410.009 148.233 407.894 147.051C405.779 145.807 403.508 145.185 401.082 145.185C398.657 145.185 396.417 145.776 394.365 146.958C392.312 148.14 390.632 149.882 389.326 152.183C388.082 154.422 387.46 157.097 387.46 160.207C387.46 163.317 388.082 166.054 389.326 168.418C390.632 170.719 392.312 172.492 394.365 173.736C396.479 174.98 398.719 175.602 401.082 175.602C403.508 175.602 405.779 175.011 407.894 173.83C410.009 172.586 411.688 170.844 412.932 168.605C414.176 166.303 414.798 163.566 414.798 160.394Z" fill="black"/>
<path d="M367.942 159.274C367.942 161.14 367.818 162.82 367.569 164.313H329.781C330.092 168.045 331.398 170.968 333.699 173.083C336.001 175.198 338.831 176.256 342.19 176.256C347.042 176.256 350.494 174.172 352.547 170.004H366.636C365.143 174.98 362.282 179.086 358.052 182.32C353.822 185.493 348.628 187.079 342.47 187.079C337.494 187.079 333.015 185.99 329.034 183.813C325.115 181.574 322.036 178.433 319.797 174.389C317.62 170.346 316.532 165.681 316.532 160.394C316.532 155.044 317.62 150.348 319.797 146.305C321.974 142.262 325.022 139.152 328.941 136.975C332.86 134.797 337.369 133.709 342.47 133.709C347.384 133.709 351.769 134.766 355.626 136.881C359.545 138.996 362.561 142.013 364.676 145.932C366.853 149.788 367.942 154.236 367.942 159.274ZM354.413 155.542C354.351 152.183 353.138 149.508 350.774 147.518C348.41 145.465 345.518 144.439 342.097 144.439C338.862 144.439 336.125 145.434 333.886 147.425C331.709 149.353 330.372 152.059 329.874 155.542H354.413Z" fill="black"/>
<path d="M290.128 175.882H311.588V186.239H277.065V121.113H290.128V175.882Z" fill="black"/>
<path d="M800.566 66.2742C800.566 68.1403 800.442 69.8198 800.193 71.3126H762.405C762.716 75.0448 764.022 77.9683 766.324 80.0832C768.625 82.1981 771.455 83.2555 774.814 83.2555C779.666 83.2555 783.118 81.1717 785.171 77.0042H799.26C797.767 81.9804 794.906 86.0857 790.676 89.3203C786.446 92.4926 781.252 94.0788 775.094 94.0788C770.118 94.0788 765.639 92.9902 761.658 90.8132C757.74 88.5739 754.661 85.4326 752.421 81.3895C750.244 77.3463 749.156 72.6811 749.156 67.3939C749.156 62.0444 750.244 57.3481 752.421 53.305C754.598 49.2618 757.646 46.1517 761.565 43.9746C765.484 41.7975 769.994 40.7089 775.094 40.7089C780.008 40.7089 784.394 41.7664 788.25 43.8813C792.169 45.9961 795.186 49.013 797.301 52.9317C799.478 56.7883 800.566 61.2358 800.566 66.2742ZM787.037 62.542C786.975 59.1831 785.762 56.5084 783.398 54.5179C781.035 52.4652 778.142 51.4389 774.721 51.4389C771.487 51.4389 768.75 52.4341 766.51 54.4246C764.333 56.3529 762.996 59.0587 762.498 62.542H787.037Z" fill="black"/>
<path d="M739.609 24.1941V93.2391H726.546V24.1941H739.609Z" fill="black"/>
<path d="M667.059 67.3939C667.059 62.0444 668.148 57.3792 670.325 53.3983C672.502 49.3551 675.519 46.245 679.375 44.0679C683.232 41.8286 687.648 40.7089 692.624 40.7089C699.031 40.7089 704.319 42.3262 708.486 45.5607C712.716 48.7331 715.546 53.2117 716.977 58.9965H702.888C702.141 56.7572 700.866 55.0155 699.062 53.7715C697.321 52.4652 695.144 51.8121 692.531 51.8121C688.799 51.8121 685.844 53.1806 683.667 55.9175C681.49 58.5922 680.402 62.4176 680.402 67.3939C680.402 72.3079 681.49 76.1333 683.667 78.8702C685.844 81.545 688.799 82.8823 692.531 82.8823C697.818 82.8823 701.271 80.5186 702.888 75.7912H716.977C715.546 81.3895 712.716 85.8369 708.486 89.1337C704.256 92.4304 698.969 94.0788 692.624 94.0788C687.648 94.0788 683.232 92.9902 679.375 90.8132C675.519 88.5739 672.502 85.4637 670.325 81.4828C668.148 77.4396 667.059 72.7433 667.059 67.3939Z" fill="black"/>
<path d="M663.377 41.5487L631.373 117.685H617.471L628.668 91.9328L607.954 41.5487H622.603L635.945 77.6573L649.474 41.5487H663.377Z" fill="black"/>
<path d="M554.438 67.3939C554.438 62.0444 555.527 57.3792 557.704 53.3983C559.881 49.3551 562.898 46.245 566.755 44.0679C570.611 41.8286 575.027 40.7089 580.004 40.7089C586.411 40.7089 591.698 42.3262 595.865 45.5607C600.095 48.7331 602.925 53.2117 604.356 58.9965H590.267C589.521 56.7572 588.246 55.0155 586.442 53.7715C584.7 52.4652 582.523 51.8121 579.91 51.8121C576.178 51.8121 573.224 53.1806 571.047 55.9175C568.869 58.5922 567.781 62.4176 567.781 67.3939C567.781 72.3079 568.869 76.1333 571.047 78.8702C573.224 81.545 576.178 82.8823 579.91 82.8823C585.198 82.8823 588.65 80.5186 590.267 75.7912H604.356C602.925 81.3895 600.095 85.8369 595.865 89.1337C591.636 92.4304 586.348 94.0788 580.004 94.0788C575.027 94.0788 570.611 92.9902 566.755 90.8132C562.898 88.5739 559.881 85.4637 557.704 81.4828C555.527 77.4396 554.438 72.7433 554.438 67.3939Z" fill="black"/>
<path d="M538.454 35.3906C536.152 35.3906 534.224 34.6753 532.669 33.2446C531.176 31.7517 530.429 29.9168 530.429 27.7397C530.429 25.5626 531.176 23.7587 532.669 22.328C534.224 20.8352 536.152 20.0887 538.454 20.0887C540.755 20.0887 542.652 20.8352 544.145 22.328C545.7 23.7587 546.478 25.5626 546.478 27.7397C546.478 29.9168 545.7 31.7517 544.145 33.2446C542.652 34.6753 540.755 35.3906 538.454 35.3906ZM544.892 41.5487V93.2391H531.829V41.5487H544.892Z" fill="black"/>
<path d="M508.822 59.8362C512.492 60.5205 515.509 62.3554 517.873 65.3412C520.236 68.3269 521.418 71.748 521.418 75.6046C521.418 79.088 520.547 82.167 518.806 84.8417C517.126 87.4542 514.669 89.5069 511.435 90.9998C508.2 92.4926 504.375 93.2391 499.958 93.2391H471.874V28.1129H498.745C503.162 28.1129 506.956 28.8282 510.129 30.2589C513.363 31.6895 515.789 33.68 517.406 36.2303C519.086 38.7806 519.925 41.6731 519.925 44.9076C519.925 48.702 518.899 51.8743 516.846 54.4246C514.856 56.9749 512.181 58.7788 508.822 59.8362ZM484.936 54.9844H496.879C499.989 54.9844 502.384 54.3002 504.064 52.9317C505.743 51.5011 506.583 49.4795 506.583 46.867C506.583 44.2545 505.743 42.2329 504.064 40.8022C502.384 39.3716 499.989 38.6562 496.879 38.6562H484.936V54.9844ZM498.092 82.6024C501.265 82.6024 503.722 81.856 505.463 80.3631C507.267 78.8703 508.169 76.7554 508.169 74.0184C508.169 71.2193 507.236 69.0422 505.37 67.4872C503.504 65.8699 500.985 65.0613 497.812 65.0613H484.936V82.6024H498.092Z" fill="black"/>
<path d="M413.095 94.0788C408.118 94.0788 403.64 92.9902 399.659 90.8132C395.678 88.5739 392.537 85.4326 390.235 81.3895C387.996 77.3463 386.876 72.6811 386.876 67.3939C386.876 62.1066 388.027 57.4414 390.328 53.3983C392.692 49.3551 395.896 46.245 399.939 44.0679C403.982 41.8286 408.492 40.7089 413.468 40.7089C418.444 40.7089 422.954 41.8286 426.997 44.0679C431.04 46.245 434.212 49.3551 436.514 53.3983C438.878 57.4414 440.059 62.1066 440.059 67.3939C440.059 72.6811 438.846 77.3463 436.421 81.3895C434.057 85.4326 430.822 88.5739 426.717 90.8132C422.674 92.9902 418.133 94.0788 413.095 94.0788ZM413.095 82.6957C415.458 82.6957 417.666 82.1359 419.719 81.0162C421.834 79.8344 423.514 78.0927 424.758 75.7912C426.002 73.4897 426.624 70.6906 426.624 67.3939C426.624 62.4798 425.317 58.7166 422.705 56.1041C420.155 53.4294 417.013 52.092 413.281 52.092C409.549 52.092 406.408 53.4294 403.857 56.1041C401.369 58.7166 400.125 62.4798 400.125 67.3939C400.125 72.3079 401.338 76.1022 403.764 78.7769C406.252 81.3895 409.362 82.6957 413.095 82.6957Z" fill="black"/>
<path d="M339.177 78.497C345.149 73.5208 349.907 69.3843 353.453 66.0876C356.998 62.7287 359.953 59.2453 362.317 55.6376C364.68 52.0298 365.862 48.4843 365.862 45.0009C365.862 41.8286 365.116 39.3405 363.623 37.5366C362.13 35.7327 359.829 34.8308 356.719 34.8308C353.608 34.8308 351.214 35.8882 349.534 38.0031C347.855 40.0558 346.984 42.886 346.922 46.4938H334.232C334.481 39.0295 336.689 33.369 340.857 29.5124C345.087 25.6559 350.436 23.7276 356.905 23.7276C363.996 23.7276 369.439 25.6248 373.233 29.4191C377.028 33.1513 378.925 38.0964 378.925 44.2545C378.925 49.1063 377.619 53.7404 375.006 58.1568C372.394 62.5732 369.408 66.4297 366.049 69.7265C362.69 72.961 358.305 76.8798 352.893 81.4828H380.418V92.306H334.326V82.6024L339.177 78.497Z" fill="black"/>
<path d="M300.018 94.0788C295.042 94.0788 290.563 92.9902 286.582 90.8132C282.601 88.5739 279.46 85.4326 277.159 81.3895C274.919 77.3463 273.8 72.6811 273.8 67.3939C273.8 62.1066 274.951 57.4414 277.252 53.3983C279.616 49.3551 282.819 46.245 286.862 44.0679C290.906 41.8286 295.415 40.7089 300.391 40.7089C305.368 40.7089 309.877 41.8286 313.92 44.0679C317.964 46.245 321.136 49.3551 323.437 53.3983C325.801 57.4414 326.983 62.1066 326.983 67.3939C326.983 72.6811 325.77 77.3463 323.344 81.3895C320.98 85.4326 317.746 88.5739 313.641 90.8132C309.597 92.9902 305.057 94.0788 300.018 94.0788ZM300.018 82.6957C302.382 82.6957 304.59 82.1359 306.643 81.0162C308.758 79.8344 310.437 78.0927 311.681 75.7912C312.925 73.4897 313.547 70.6906 313.547 67.3939C313.547 62.4798 312.241 58.7166 309.628 56.1041C307.078 53.4294 303.937 52.092 300.205 52.092C296.473 52.092 293.331 53.4294 290.781 56.1041C288.293 58.7166 287.049 62.4798 287.049 67.3939C287.049 72.3079 288.262 76.1022 290.688 78.7769C293.176 81.3895 296.286 82.6957 300.018 82.6957Z" fill="black"/>
</g>
<defs>
<clipPath id="clip0_416_505">
<rect width="800.566" height="231.8" fill="white"/>
</clipPath>
</defs>
</svg>
